<svg width="114.000000" height="113.411652" viewBox="0 0 114 113.412" fill="none" xmlns="http://www.w3.org/2000/svg" xmlns:xlink="http://www.w3.org/1999/xlink">
	<desc>
			Created with Pixso.
	</desc>
	<g clip-path="url(#clip4_116)">
		<path d="M26.5835 26.4681C34.3457 18.7509 45.0935 13.9673 56.9648 13.9673C68.8367 13.9673 79.6196 18.7512 87.3816 26.4681C95.1785 34.2196 99.9907 44.9047 99.9907 56.6723C99.9907 68.4749 95.1792 79.1946 87.3816 86.947C79.6196 94.664 68.8367 99.4471 56.9648 99.4471C45.093 99.4471 34.3457 94.6633 26.5835 86.947C18.7864 79.1954 13.9741 68.4749 13.9741 56.6723C13.9741 44.9047 18.7861 34.2196 26.5835 26.4681ZM56.9648 15.8876C45.6201 15.8876 35.364 20.4619 27.9529 27.8294C20.5066 35.2324 15.9409 45.4285 15.9409 56.6723C15.9409 67.9507 20.5068 78.147 27.9529 85.5847C35.364 92.9522 45.6196 97.5269 56.9648 97.5269C68.2747 97.5269 78.6008 92.9522 86.0115 85.5847C93.4229 78.147 98.0234 67.9507 98.0234 56.6723C98.0234 45.4285 93.4221 35.2324 86.0115 27.8294C78.6008 20.4616 68.2742 15.8876 56.9648 15.8876Z" fill-rule="evenodd" fill="#000000"/>
		<path d="M30.2012 30.0995C37.0503 23.2905 46.4985 19.0651 57.0005 19.0651C67.4324 19.0651 76.9153 23.2903 83.7644 30.0995C90.6138 36.9086 94.8281 46.3364 94.8281 56.7073C94.8281 67.1129 90.6138 76.5061 83.7644 83.315C76.9153 90.124 67.4324 94.3493 57.0005 94.3493C46.4985 94.3493 37.0503 90.1247 30.2012 83.315C23.3523 76.5061 19.1021 67.1129 19.1021 56.7073C19.1021 46.3364 23.3521 36.9086 30.2012 30.0995ZM57.0005 26.8172C48.6763 26.8172 41.1597 30.1694 35.7161 35.5816C30.272 40.959 26.9001 48.4666 26.9001 56.7073C26.9001 64.9832 30.272 72.4559 35.7161 77.833C41.1602 83.2456 48.6768 86.5976 57.0005 86.5976C65.2896 86.5976 72.8062 83.2456 78.2505 77.833C83.6946 72.4559 87.0312 64.9832 87.0312 56.7073C87.0312 48.4666 83.6946 40.9589 78.2505 35.5816C72.8062 30.1692 65.2896 26.8172 57.0005 26.8172Z" fill-rule="evenodd" fill="#000000"/>
		<path d="M54.4951 65.8476L64.4729 65.8476L64.4729 69.3087L54.4951 69.3087L54.4951 75.6078L49.3044 75.6078L49.3044 69.3087L45.0322 69.3087L45.0322 65.8476L49.3044 65.8476L49.3044 61.6528L45.0322 61.6528L45.0322 57.6934L49.3044 57.6934L49.3044 42.401C49.3044 39.7907 51.4204 37.6747 54.0308 37.6747L57.9185 37.6747C62.7056 37.6747 66.3887 38.6668 68.9678 40.6512C71.5562 42.6355 72.8503 45.5751 72.8503 49.4699C72.8503 53.6232 71.519 56.692 68.8564 58.6763C66.1938 60.6607 62.5664 61.6528 57.9741 61.6528L54.4951 61.6528L54.4951 65.8476ZM54.4951 41.7033L54.4951 57.6934L57.7375 57.6934C60.8918 57.6934 63.2947 57.0981 64.946 55.9075C66.6067 54.7169 67.437 52.5895 67.437 49.5253C67.437 46.7657 66.6067 44.7721 64.946 43.5446C63.2947 42.3171 60.929 41.7033 57.8489 41.7033L54.4951 41.7033Z" fill-rule="nonzero" fill="#000000"/>
	</g>
	<defs>
		<clipPath id="clip4_116">
			<rect width="114.000000" height="113.411652" fill="white"/>
		</clipPath>
	</defs>
</svg>
