<svg width="114.000000" height="113.411652" viewBox="0 0 114 113.412" fill="none" xmlns="http://www.w3.org/2000/svg" xmlns:xlink="http://www.w3.org/1999/xlink">
	<desc>
			Created with Pixso.
	</desc>
	<g clip-path="url(#clip4_108)">
		<path d="M26.5837 26.4681C34.3459 18.7509 45.0938 13.9673 56.9651 13.9673C68.8369 13.9673 79.6199 18.7512 87.3818 26.4681C95.1787 34.2196 99.991 44.9047 99.991 56.6723C99.991 68.4749 95.1794 79.1946 87.3818 86.947C79.6199 94.664 68.8369 99.4471 56.9651 99.4471C45.0933 99.4471 34.3459 94.6633 26.5837 86.947C18.7866 79.1954 13.9744 68.4749 13.9744 56.6723C13.9744 44.9047 18.7864 34.2196 26.5837 26.4681ZM56.9651 15.8876C45.6206 15.8876 35.3643 20.4619 27.9531 27.8294C20.5068 35.2324 15.9412 45.4285 15.9412 56.6723C15.9412 67.9507 20.5071 78.147 27.9531 85.5847C35.3643 92.9522 45.6199 97.5269 56.9651 97.5269C68.2749 97.5269 78.6011 92.9522 86.0117 85.5847C93.4231 78.147 98.0237 67.9507 98.0237 56.6723C98.0237 45.4285 93.4224 35.2324 86.0117 27.8294C78.6011 20.4616 68.2744 15.8876 56.9651 15.8876Z" fill-rule="evenodd" fill="#000000"/>
		<path d="M40.375 44.8929L40.375 68.5187C40.375 71.129 42.491 73.245 45.1013 73.245L68.8987 73.245C71.509 73.245 73.625 71.129 73.625 68.5187L73.625 44.8929C73.625 42.2827 71.509 40.1666 68.8987 40.1666L45.1013 40.1666C42.491 40.1666 40.375 42.2827 40.375 44.8929Z" fill-rule="evenodd" fill="#000000"/>
	</g>
	<defs>
		<clipPath id="clip4_108">
			<rect width="114.000000" height="113.411652" fill="white"/>
		</clipPath>
	</defs>
</svg>
