<svg width="114.000732" height="114.489990" viewBox="0 0 114.001 114.49" fill="none" xmlns="http://www.w3.org/2000/svg" xmlns:xlink="http://www.w3.org/1999/xlink">
	<desc>
			Created with Pixso.
	</desc>
	<g clip-path="url(#clip4_92)">
		<path d="M26.5837 26.7198C34.3462 18.9292 45.094 14.1002 56.9653 14.1002C68.8374 14.1002 79.6204 18.9295 87.3823 26.7198C95.1792 34.545 99.9915 45.3317 99.9915 57.2112C99.9915 69.126 95.1799 79.9477 87.3823 87.7738C79.6204 95.5641 68.8374 100.393 56.9653 100.393C45.0935 100.393 34.3462 95.5634 26.5837 87.7738C18.7866 79.9484 13.9744 69.126 13.9744 57.2112C13.9744 45.3317 18.7864 34.545 26.5837 26.7198ZM56.9653 16.0387C45.6206 16.0387 35.3643 20.6565 27.9531 28.0941C20.5068 35.5674 15.9412 45.8604 15.9412 57.2112C15.9412 68.5968 20.5071 78.89 27.9531 86.3985C35.3643 93.836 45.6201 98.4543 56.9653 98.4543C68.2754 98.4543 78.6013 93.836 86.0122 86.3985C93.4236 78.89 98.0244 68.5968 98.0244 57.2112C98.0244 45.8604 93.4229 35.5674 86.0122 28.0941C78.6013 20.6561 68.2749 16.0387 56.9653 16.0387Z" fill-rule="evenodd" fill="#000000"/>
		<path d="M30.2012 30.3857C37.0503 23.5119 46.4988 19.2463 57.0007 19.2463C67.4326 19.2463 76.9155 23.5117 83.7649 30.3857C90.6143 37.2595 94.8289 46.7769 94.8289 57.2465C94.8289 67.751 90.6143 77.2335 83.7649 84.1072C76.9155 90.9809 67.4326 95.2464 57.0007 95.2464C46.4988 95.2464 37.0503 90.9816 30.2012 84.1072C23.3523 77.2335 19.1021 67.751 19.1021 57.2465C19.1021 46.7769 23.3521 37.2595 30.2012 30.3857ZM57.0007 27.0721C48.6765 27.0721 41.1599 30.4562 35.7161 35.9199C30.2722 41.3484 26.9004 48.9274 26.9004 57.2465C26.9004 65.601 30.2722 73.1448 35.7161 78.573C41.1604 84.037 48.6768 87.421 57.0007 87.421C65.2898 87.421 72.8066 84.037 78.251 78.573C83.6951 73.1448 87.0317 65.601 87.0317 57.2465C87.0317 48.9274 83.6951 41.3483 78.251 35.9199C72.8066 30.456 65.2898 27.0721 57.0007 27.0721Z" fill-rule="evenodd" fill="#000000"/>
		<path d="M54.9985 41.313C54.9985 40.2556 55.8765 39.3743 56.9656 39.3743C58.0542 39.3743 58.9324 40.2556 58.9324 41.313L58.9324 55.3075L68.5564 55.3075C69.6101 55.3075 70.488 56.1888 70.488 57.2463C70.488 58.3391 69.6099 59.2203 68.5564 59.2203L56.9656 59.2203C55.877 59.2203 54.9988 58.3391 54.9988 57.2463L54.9985 41.313Z" fill-rule="evenodd" fill="#000000"/>
	</g>
	<defs>
		<clipPath id="clip4_92">
			<rect width="114.000839" height="114.489998" fill="white"/>
		</clipPath>
	</defs>
</svg>
